<svg version="1.1" xmlns="http://www.w3.org/2000/svg" xmlns:xlink="http://www.w3.org/1999/xlink" width="89" height="89" viewBox="0,0,89,89"><g transform="translate(-195.5,-135.5)"><g data-paper-data="{&quot;isPaintingLayer&quot;:true}" fill-rule="nonzero" stroke="#000000" stroke-linejoin="miter" stroke-miterlimit="10" stroke-dasharray="" stroke-dashoffset="0" style="mix-blend-mode: normal"><path d="M196.5,213c0,-17.8841 0,-53.35502 0,-64c0,-5.91178 5.09939,-12.5 10,-12.5c10.22092,0 48.57656,0 67,0c6.08841,0 10,5.3923 10,10.5c0,9.8916 0,44.96892 0,64c0,7.4941 -5.6877,12.5 -11,12.5c-9.73652,0 -42.84646,0 -62,0c-8.3152,0 -14,-4.1368 -14,-10.5z" fill="#ff0000" stroke-width="2" stroke-linecap="butt"/><path d="M222.10171,158.25156v28.5722" fill="none" stroke-width="3.5" stroke-linecap="round"/><path d="M258.10559,158.3882v28.5722" fill="none" stroke-width="3.5" stroke-linecap="round"/></g></g></svg>