<svg version="1.1" xmlns="http://www.w3.org/2000/svg" xmlns:xlink="http://www.w3.org/1999/xlink" width="66.07143" height="70.01278" viewBox="0,0,66.07143,70.01278"><defs><radialGradient cx="269.26705" cy="146.4" r="5.92017" gradientUnits="userSpaceOnUse" id="color-1"><stop offset="0" stop-color="#ffc800"/><stop offset="1" stop-color="#ff0000"/></radialGradient></defs><g transform="translate(-211.25,-138.73722)"><g data-paper-data="{&quot;isPaintingLayer&quot;:true}" fill-rule="nonzero" stroke-linecap="butt" stroke-linejoin="miter" stroke-miterlimit="10" stroke-dasharray="" stroke-dashoffset="0" style="mix-blend-mode: normal"><path d="M213,180c0,-14.91169 12.08831,-27 27,-27c14.91169,0 27,12.08831 27,27c0,14.91169 -12.08831,27 -27,27c-14.91169,0 -27,-12.08831 -27,-27z" fill="#000000" stroke="#000000" stroke-width="3.5"/><path d="M266.88178,146.16952c-0.22634,2.48973 -2.71607,2.26339 -2.71607,2.26339l-1.06345,-0.28438c-4.27727,1.28907 -8.72681,1.3417 -10.12759,6.44577c0,0 -0.73521,2.38945 -3.12466,1.65423c-2.38945,-0.73521 -1.65423,-3.12466 -1.65423,-3.12466c1.30816,-3.97142 4.27089,-7.48054 8.46275,-8.8329c1.60454,-0.51765 3.36552,-0.41383 4.9733,-0.92133l2.98655,0.08381c0,0 2.48973,0.22634 2.26339,2.71607z" fill="#d6a670" stroke="none" stroke-width="0.5"/><path d="M263.92161,146.19648l6.44438,-6.04576l5.54195,5.90735l-6.44438,6.04576z" fill="#ff7c00" stroke="#ff0000" stroke-width="2"/><path d="M264.51847,143.61064l8.43334,-2.6382l2.41835,7.73057l-8.43334,2.63819z" fill="#ff7c00" stroke="#ff0000" stroke-width="2"/><path d="M265.90873,142.14353l8.82901,0.3606l-0.33055,8.09326l-8.829,-0.3606z" fill="#ff7c00" stroke="#ff0000" stroke-width="2"/><path d="M263.45038,147.84543l4.88153,-7.3656l6.7518,4.47474l-4.88153,7.36559z" fill="url(#color-1)" stroke="#ff0000" stroke-width="2"/></g></g></svg>