<svg version="1.1" xmlns="http://www.w3.org/2000/svg" xmlns:xlink="http://www.w3.org/1999/xlink" width="242.644" height="225.174" viewBox="0,0,242.644,225.174"><g transform="translate(-119.178,-79.325)"><g data-paper-data="{&quot;isPaintingLayer&quot;:true}" fill-rule="nonzero" stroke-miterlimit="10" stroke-dasharray="" stroke-dashoffset="0" style="mix-blend-mode: normal"><g data-paper-data="{&quot;index&quot;:null}" stroke-linejoin="miter"><path d="M152.714,121.078h4.532v30.15h-4.532z" fill="#d974e8" stroke="#5e154d" stroke-width="0.6" stroke-linecap="butt"/><g><path d="M189.014,136.174c0,4.215 -3.42,7.632 -7.638,7.632h-17.919c-2.463,0.285 -4.704,1.556 -6.211,3.522v-22.308c1.507,1.966 3.748,3.238 6.211,3.522h17.919c4.218,0 7.638,3.417 7.638,7.632z" fill="#8b49d4" stroke="#5e154d" stroke-width="0.6" stroke-linecap="butt"/><path d="M176.718,143.806h4.196v11.196h-4.196v-11.196" fill="#8b49d4" stroke="#5e154d" stroke-width="0.6" stroke-linecap="butt"/><path d="M180.914,132.065c2.318,0 4.197,1.877 4.197,4.193" fill="none" stroke="#ffffff" stroke-width="0.6" stroke-linecap="butt"/><path d="M143.104,136.174h-7.134" fill="none" stroke="#5e154d" stroke-width="1.2" stroke-linecap="round"/><path d="M143.104,147.705l-5.456,5.41" fill="none" stroke="#5e154d" stroke-width="1.2" stroke-linecap="round"/><path d="M137.648,119.233l5.456,5.41" fill="none" stroke="#5e154d" stroke-width="1.2" stroke-linecap="round"/></g></g><g data-paper-data="{&quot;index&quot;:null}" stroke="none" stroke-width="1" stroke-linecap="butt" stroke-linejoin="miter"><path d="M355.229,250.364h-229.759v-17.57c-0.53,-3.602 1.246,-7.152 4.448,-8.889l24.844,-17.319l7.05,-45.119c0.406,-3.463 3.195,-6.162 6.672,-6.457h180.828c3.777,0 5.917,2.096 5.917,6.499z" fill="#f7c1d8"/><path d="M355.229,249.232v37.11h-25.431c-0.561,-13.987 -12.072,-25.037 -26.081,-25.037c-14.009,0 -25.52,11.05 -26.081,25.037h-73.565c0.287,-6.726 -2.199,-13.275 -6.879,-18.118c-4.68,-4.843 -11.144,-7.555 -17.881,-7.503c-6.835,-0.091 -13.418,2.577 -18.26,7.399c-4.842,4.822 -7.533,11.391 -7.464,18.222h-28.117v-37.11z" fill="#da53d6"/></g><path d="M245.872,142.932h5.245v12.118h-5.245v-12.118" data-paper-data="{&quot;index&quot;:null}" fill="#5e154d" stroke="#5e154d" stroke-width="1.512" stroke-linecap="round" stroke-linejoin="round"/><path d="M316.625,142.806h5.245v12.118h-5.245v-12.118" data-paper-data="{&quot;index&quot;:null}" fill="#5e154d" stroke="#5e154d" stroke-width="1.512" stroke-linecap="round" stroke-linejoin="round"/><g data-paper-data="{&quot;index&quot;:null}" stroke-linejoin="miter"><path d="M338.54,112.097c4.731,8.522 7.293,18.07 7.46,27.806c0,4.767 -1.875,9.097 -5.865,9.097h-110.709c-0.947,-8.952 -0.312,-18 1.875,-26.734c5.146,-18.114 26.929,-42.266 55.574,-42.266c25.733,0 42.529,15.77 51.665,32.097z" fill="#ffd78f" stroke="#e89f1f" stroke-width="1.35" stroke-linecap="butt"/><path d="M330.7415,103.7185l3.9247,0.643l-2.7799,17.0316l-3.9255,-0.6441l2.7807,-17.0305" fill="#4ed1c1" stroke="#009cc6" stroke-width="1.35" stroke-linecap="round"/><path d="M304.9882,95.7324l3.8664,-0.9314l4.0291,16.778l-3.8662,0.9324l-4.0293,-16.779" fill="#ffffff" stroke="#000000" stroke-width="1.8" stroke-linecap="round"/><path d="M318.2505,92.0681l3.9949,2.8667l-9.9888,13.979l-3.9948,-2.8667l9.9887,-13.979" fill="#4ed1c1" stroke="#009cc6" stroke-width="1.875" stroke-linecap="round"/><path d="M317.8633,99.9196l4.8068,-0.668l2.963,21.3968l-4.8068,0.668l-2.963,-21.3968" fill="#4ed1c1" stroke="#009cc6" stroke-width="1.875" stroke-linecap="round"/><path d="M327.8938,95.3257l3.8952,3.2843l-14.5201,17.291l-3.8959,-3.2849l14.5208,-17.2904" fill="#4ed1c1" stroke="#009cc6" stroke-width="1.35" stroke-linecap="round"/><path d="M322.6871,106.1241l4.058,-0.5641l2.3679,17.0937l-4.058,0.5641l-2.3679,-17.0937" fill="#009cc6" stroke="#009cc6" stroke-width="1.875" stroke-linecap="round"/><path d="M223.3721,112.8624l3.7786,-1.5862l6.6544,15.9181l-3.7786,1.5862l-6.6544,-15.9181" fill="#4ed1c1" stroke="#009cc6" stroke-width="1.35" stroke-linecap="round"/><path d="M225.9383,107.5852l3.0997,-3.6899l13.1765,11.1113l-3.0983,3.6897l-13.1779,-11.1111" fill="#4ed1c1" stroke="#009cc6" stroke-width="1.35" stroke-linecap="round"/><path d="M231.4496,108.7086l1.9843,-4.13l15.5186,7.4841l-1.9843,4.13l-15.5186,-7.4841" fill="#009cc6" stroke="#009cc6" stroke-width="1.35" stroke-linecap="round"/><path d="M223.3333,121.4264l-1.2507,-3.9099l16.3992,-5.2694l1.2516,3.9095l-16.4001,5.2698" fill="#4ed1c1" stroke="#009cc6" stroke-width="1.875" stroke-linecap="round"/><path d="M322,121.069c0.397,-2.177 2.228,-3.819 4.462,-4.001c1.841,-0.319 3.693,0.506 4.666,2.08c0,0 3.083,-2.4 5.192,0c1.234,1.354 1.234,3.408 0,4.762c0,0 3.489,0.32 4.057,2.88c0.293,1.689 -0.25,3.413 -1.46,4.642c1.685,0.403 2.924,1.818 3.083,3.521c-0.014,1.829 -0.939,3.534 -2.475,4.561c1.484,0.938 2.349,2.584 2.272,4.321c-0.067,1.509 -0.772,2.922 -1.944,3.895c-1.171,0.973 -2.703,1.418 -4.222,1.226h-4.665z" fill="#f46e9e" stroke="#ea3681" stroke-width="1.35" stroke-linecap="round"/><path d="M238,99.051c0.436,-2.094 1.622,-3.951 3.332,-5.213c1.462,-1.208 3.388,-1.68 5.235,-1.283c0.669,-2.402 2.272,-4.427 4.443,-5.614c1.864,-0.861 4.006,-0.861 5.87,0c1.59,-2.951 4.61,-4.829 7.933,-4.932c3.515,-0.151 6.842,1.607 8.726,4.611c1.4,-2.264 3.758,-3.745 6.386,-4.01c2.495,-0.01 4.775,1.424 5.87,3.69c2.132,-2.327 5.271,-3.425 8.369,-2.928c2.973,0.225 5.499,2.284 6.347,5.173c2.701,-0.564 5.513,-0.137 7.933,1.203c2.617,1.86 3.957,5.066 3.45,8.26c-0.455,2.674 -1.255,5.276 -2.379,7.739l-68.818,5.253z" fill="#f46e9e" stroke="#ea3681" stroke-width="1.35" stroke-linecap="round"/><path d="M235.8343,99.7685l4.8464,-0.6735l2.3669,17.0939l-4.8464,0.6735l-2.3669,-17.0939" fill="#4ed1c1" stroke="#009cc6" stroke-width="1.875" stroke-linecap="round"/><path d="M311.9523,90.077l4.2677,0.9631l-3.9668,17.6528l-4.2677,-0.9631l3.9668,-17.6528" fill="#009cc6" stroke="#009cc6" stroke-width="1.35" stroke-linecap="round"/><path d="M336,131c1.104,0 2.104,0.448 2.828,1.172c0.724,0.724 1.172,1.724 1.172,2.828c0,1.104 -0.448,2.104 -1.172,2.828c-0.724,0.724 -1.724,1.172 -2.828,1.172c-1.104,0 -2.104,-0.448 -2.828,-1.172c-0.724,-0.724 -1.172,-1.724 -1.172,-2.828c0,-1.104 0.448,-2.104 1.172,-2.828c0.724,-0.724 1.724,-1.172 2.828,-1.172z" fill="#ea3681" stroke="#ea3681" stroke-width="0.9" stroke-linecap="round"/><path d="M332.636,139.96c0.955,5.64 2.229,9.04 7.364,9.04h-115.998c-0.244,-30.562 24.123,-55.583 54.536,-56c26.965,0.439 49.748,20.216 54.098,46.96z" fill="#fdbb38" stroke="#e89f1f" stroke-width="1.35" stroke-linecap="butt"/><path d="M254,89c1.104,0 2.104,0.448 2.828,1.172c0.724,0.724 1.172,1.724 1.172,2.828c0,1.104 -0.448,2.104 -1.172,2.828c-0.724,0.724 -1.724,1.172 -2.828,1.172c-1.104,0 -2.104,-0.448 -2.828,-1.172c-0.724,-0.724 -1.172,-1.724 -1.172,-2.828c0,-1.104 0.448,-2.104 1.172,-2.828c0.724,-0.724 1.724,-1.172 2.828,-1.172z" fill="#ea3681" stroke="#ea3681" stroke-width="0.9" stroke-linecap="round"/><path d="M293,86c1.104,0 2.104,0.448 2.828,1.172c0.724,0.724 1.172,1.724 1.172,2.828c0,1.104 -0.448,2.104 -1.172,2.828c-0.724,0.724 -1.724,1.172 -2.828,1.172c-1.104,0 -2.104,-0.448 -2.828,-1.172c-0.724,-0.724 -1.172,-1.724 -1.172,-2.828c0,-1.104 0.448,-2.104 1.172,-2.828c0.724,-0.724 1.724,-1.172 2.828,-1.172z" fill="#ea3681" stroke="#ea3681" stroke-width="0.9" stroke-linecap="round"/><path d="M254,139l2,2" fill="none" stroke="#e89f1f" stroke-width="1.35" stroke-linecap="round"/><path d="M273,132.343l-3,0.314" fill="none" stroke="#e89f1f" stroke-width="1.35" stroke-linecap="round"/><path d="M315,135l-1,3" fill="none" stroke="#e89f1f" stroke-width="1.35" stroke-linecap="round"/><path d="M261,125l2,-3" fill="none" stroke="#e89f1f" stroke-width="1.35" stroke-linecap="round"/><path d="M241,131l3,-1" fill="none" stroke="#e89f1f" stroke-width="1.35" stroke-linecap="round"/><path d="M284,142l2,-2" fill="none" stroke="#e89f1f" stroke-width="1.35" stroke-linecap="round"/><path d="M286,120l-3,2" fill="none" stroke="#e89f1f" stroke-width="1.35" stroke-linecap="round"/><path d="M298,134l-1,-3" fill="none" stroke="#e89f1f" stroke-width="1.35" stroke-linecap="round"/><path d="M317,118c1.111,1.266 2.113,2.603 3,4" fill="none" stroke="#ffd78f" stroke-width="1.8" stroke-linecap="round"/><path d="M301,104c4.903,2.819 9.303,6.543 13,11" fill="none" stroke="#ffd78f" stroke-width="1.8" stroke-linecap="round"/></g><g data-paper-data="{&quot;index&quot;:null}" stroke-linecap="butt"><path d="M172.29,174.288l-10.156,40.632c-0.877,-0.616 -1.407,-1.613 -1.426,-2.684l4.867,-33.546c0.546,-3.69 2.434,-4.193 4.449,-4.193z" fill="#b3e0d7" stroke="none" stroke-width="1" stroke-linejoin="miter"/><path d="M179.046,178.145v34.133c0,2.015 -1.634,3.648 -3.651,3.648h-9.736l10.324,-41.387c1.759,0.304 3.049,1.822 3.063,3.606z" fill="#b3e0d7" stroke="none" stroke-width="1" stroke-linejoin="miter"/><path d="M175.983,174.539l-10.324,41.387h-1.175c-0.85,0.007 -1.678,-0.274 -2.35,-0.796l10.156,-40.633h3.105z" fill="#d4fff5" stroke="none" stroke-width="1" stroke-linejoin="miter"/><path d="M179.046,178.145v33.966c0,2.014 -1.634,3.648 -3.651,3.648h-10.911c-0.85,0.006 -1.678,-0.275 -2.35,-0.797c-0.877,-0.616 -1.407,-1.613 -1.426,-2.684l4.867,-33.546c0.546,-3.69 2.434,-4.193 4.449,-4.193h5.959c1.759,0.304 3.049,1.822 3.063,3.606z" fill="none" stroke="#5e154d" stroke-width="1.512" stroke-linejoin="round"/></g><g data-paper-data="{&quot;index&quot;:null}" stroke-linejoin="miter"><path d="M301.393,182.912h20.228l-11.247,44.91h-8.981v-44.91" fill="#b3e0d7" stroke="none" stroke-width="1" stroke-linecap="butt"/><path d="M321.621,182.912h6.043l-11.247,44.91h-6.043l11.247,-44.91" fill="#d4fff5" stroke="none" stroke-width="1" stroke-linecap="butt"/><path d="M331.063,182.912h3.441l-11.247,44.91h-3.399l11.205,-44.91" fill="#d4fff5" stroke="none" stroke-width="1" stroke-linecap="butt"/><path d="M327.664,182.912h3.399l-11.205,44.91h-3.441l11.247,-44.91" fill="#b3e0d7" stroke="none" stroke-width="1" stroke-linecap="butt"/><path d="M335.889,182.912v44.91h-12.632l11.247,-44.91h1.385" fill="#b3e0d7" stroke="none" stroke-width="1" stroke-linecap="butt"/><g stroke="#5e154d" stroke-width="1.512"><path d="M252.714,227.822h87.707v4.528h-87.707v-4.528" fill="#996cd4" stroke-linecap="round"/><path d="M336.224,166.055l3.693,16.857h-43.266h-0.126h-43.308l3.693,-16.857h39.615h0.126h39.573" fill="#ea3681" stroke-linecap="butt"/><path d="M257.288,182.912h44.105v44.91h-44.105v-44.91" fill="#43c3d7" stroke-linecap="round"/><path d="M257.288,232.35h4.197v7.129h-4.197v-7.129" fill="#5e154d" stroke-linecap="round"/><path d="M332.238,232.35h4.196v7.129h-4.196v-7.129" fill="#5e154d" stroke-linecap="round"/><path d="M301.393,182.912h34.496v44.91h-34.496v-44.91" fill="none" stroke-linecap="round"/></g></g><g data-paper-data="{&quot;index&quot;:null}" stroke-linecap="butt"><path d="M237.979,178.145v95.48c-0.022,1.982 -1.625,3.584 -3.609,3.606h-23.29c-2.361,-12.079 -12.011,-21.404 -24.172,-23.356v-75.73c0,-2.014 1.634,-3.648 3.651,-3.648h43.895c1.967,0.068 3.526,1.682 3.525,3.648z" fill="#fc9fe4" stroke="#5e154d" stroke-width="1.512" stroke-linejoin="round"/><path d="M194.461,183.345h12.884l-8.267,33.085h-4.617v-33.085" fill="#b3e0d7" stroke="none" stroke-width="1" stroke-linejoin="miter"/><path d="M207.345,183.345h6.043l-8.225,33.085h-6.085l8.267,-33.085" fill="#d4fff5" stroke="none" stroke-width="1" stroke-linejoin="miter"/><path d="M213.388,183.345h3.399l-8.225,33.085h-3.399l8.225,-33.085" fill="#b3e0d7" stroke="none" stroke-width="1" stroke-linejoin="miter"/><path d="M216.787,183.345h3.441l-8.225,33.085h-3.441l8.225,-33.085" fill="#d4fff5" stroke="none" stroke-width="1" stroke-linejoin="miter"/><path d="M230.551,183.345v33.085h-18.548l8.225,-33.085h10.323" fill="#b3e0d7" stroke="none" stroke-width="1" stroke-linejoin="miter"/><path d="M194.461,227.793h4.197v9.016h-4.197v-9.016" fill="none" stroke="#d974e8" stroke-width="1.512" stroke-linejoin="round"/></g><g data-paper-data="{&quot;index&quot;:null}" stroke-linejoin="miter"><g stroke-linecap="butt"><path d="M120.186,252.293h5.371v10.86h-5.371v-10.86" fill="#f7c1d8" stroke="#5e154d" stroke-width="2.016"/><path d="M139.826,263.111h8.393v4.655h-8.393v-4.655" fill="none" stroke="#fc9fe4" stroke-width="1.512"/><path d="M355.275,252.293h5.539v10.86h-5.539v-10.86" fill="#8b49d4" stroke="#5e154d" stroke-width="2.016"/><path d="M165.089,227.762h10.869" fill="none" stroke="#000000" stroke-width="2.016"/><path d="M175.958,232.543h-10.869" fill="none" stroke="#000000" stroke-width="2.016"/><path d="M175.958,237.365h-10.869" fill="none" stroke="#000000" stroke-width="2.016"/><path d="M355.275,161.509v124.833h-25.935c-0.377,-12.454 -11.204,-25.956 -25.557,-25.956c-14.366,0 -26.033,11.6 -26.102,25.956h-73.481c-0.29,-13.595 -10.892,-24.733 -24.466,-25.705c-6.884,-0.089 -13.518,2.578 -18.422,7.407c-4.904,4.829 -7.669,11.418 -7.68,18.298h-28.117v-53.548c-0.529,-3.602 1.247,-7.152 4.449,-8.889l24.843,-17.319l7.05,-45.119c0.407,-3.463 3.196,-6.162 6.673,-6.457h180.828c3.777,0 5.917,2.096 5.917,6.499z" fill="none" stroke="#5e154d" stroke-width="2.016"/></g><path d="M128.537,273.301h6.421v13.041h-12.884v-23.231h6.463v10.19" fill="#d974e8" stroke="#5e154d" stroke-width="2.016" stroke-linecap="butt"/><path d="M157.996,288.103h-6.252c-0.998,-10.363 3.972,-20.395 12.824,-25.885c8.852,-5.491 20.054,-5.491 28.906,0c8.852,5.49 13.822,15.522 12.824,25.885h-6.252c0.234,-11.84 -9.135,-21.652 -20.983,-21.973c-11.881,0.275 -21.301,10.101 -21.067,21.973z" fill="#fdbb38" stroke="#5e154d" stroke-width="1.512" stroke-linecap="butt"/><path d="M282.004,288.103h-6.211c-0.998,-10.363 3.972,-20.395 12.824,-25.885c8.852,-5.491 20.054,-5.491 28.906,0c8.852,5.49 13.822,15.522 12.824,25.885h-6.252c0.212,-11.832 -9.145,-21.63 -20.983,-21.973c-11.887,0.275 -21.319,10.094 -21.108,21.973z" fill="#fdbb38" stroke="#5e154d" stroke-width="1.512" stroke-linecap="butt"/><path d="M131.516,276.53v5.87" fill="none" stroke="#ffffff" stroke-width="1.512" stroke-linecap="round"/></g><g data-paper-data="{&quot;index&quot;:null}" stroke-linejoin="miter"><g fill="none" stroke="#ffffff" stroke-width="2.52" stroke-linecap="butt"><path d="M339.136,160.091h5.623c1.4,-0.124 2.782,0.39 3.759,1.4c0.978,1.009 1.447,2.406 1.277,3.8v6.29"/><path d="M335.359,160.091h-3.357"/></g><g fill="none" stroke="#cc48cc" stroke-width="1.512" stroke-linecap="butt"><path d="M249.778,256.621l-3.147,2.181"/><path d="M264.13,254.65l0.924,3.732"/><path d="M256.073,265.888l-0.462,3.816"/><path d="M226.11,280.9l-3.609,1.342"/><path d="M134.92,257.124l3.483,-1.635"/><path d="M144.572,275.365l-1.134,3.69"/><path d="M156.196,259.64l-1.931,-3.312"/><path d="M169.877,254.399l3.818,-0.252"/><path d="M191.111,258.089l2.854,2.6"/><path d="M205.421,273.017v-3.858"/><path d="M265.515,274.694l0.923,3.732"/><path d="M274.915,264.379l-3.147,2.18"/><path d="M285.533,258.089l-2.267,-3.145"/><path d="M303.326,254.483l-3.861,-0.21"/><path d="M317.09,257.711l2.644,-2.851"/><path d="M332.534,263.33l-3.106,-2.264"/><path d="M338.744,256.957l3.609,-1.342"/><path d="M347.221,263.582l-0.629,3.774"/><path d="M346.55,279.558l-1.763,-3.396"/><path d="M337.527,271.465l-3.147,2.223"/><path d="M247.26,276.581l3.609,1.258"/></g><path d="M194.468,183.322h36.09v33.042h-36.09v-33.042" fill="none" stroke="#5e154d" stroke-width="1.512" stroke-linecap="butt"/><g stroke="#5e154d" stroke-width="1.512" stroke-linecap="butt"><path d="M262.702,182.889v4.822c0,2.664 -2.161,4.823 -4.826,4.823c-2.665,0 -4.826,-2.159 -4.826,-4.823v-4.822z" fill="#ffffff"/><path d="M272.48,182.889v4.822c0.171,1.823 -0.706,3.585 -2.263,4.549c-1.558,0.964 -3.527,0.964 -5.084,0c-1.557,-0.964 -2.434,-2.726 -2.263,-4.549v-4.822z" fill="#f7c1d8"/><path d="M282.132,182.889v4.822c0,2.664 -2.161,4.823 -4.826,4.823c-2.665,0 -4.826,-2.159 -4.826,-4.823v-4.822z" fill="#ffffff"/><path d="M291.742,182.889v4.822c0.171,1.823 -0.706,3.585 -2.263,4.549c-1.558,0.964 -3.527,0.964 -5.084,0c-1.557,-0.964 -2.434,-2.726 -2.263,-4.549v-4.822z" fill="#f7c1d8"/><path d="M301.394,182.889v4.822c0,2.664 -2.161,4.823 -4.826,4.823c-2.665,0 -4.826,-2.159 -4.826,-4.823v-4.822z" fill="#ffffff"/><path d="M311.046,182.889v4.822c0,2.664 -2.161,4.823 -4.826,4.823c-2.665,0 -4.826,-2.159 -4.826,-4.823v-4.822z" fill="#f7c1d8"/><path d="M320.656,182.889v4.822c0.171,1.823 -0.706,3.585 -2.263,4.549c-1.558,0.964 -3.527,0.964 -5.084,0c-1.557,-0.964 -2.434,-2.726 -2.263,-4.549v-4.822z" fill="#ffffff"/><path d="M330.308,182.889v4.822c0,2.664 -2.161,4.823 -4.826,4.823c-2.665,0 -4.826,-2.159 -4.826,-4.823v-4.822z" fill="#f7c1d8"/><path d="M339.918,182.889v4.822c0.171,1.823 -0.706,3.585 -2.263,4.549c-1.558,0.964 -3.527,0.964 -5.084,0c-1.557,-0.964 -2.434,-2.726 -2.263,-4.549v-4.822z" fill="#ffffff"/></g><path d="M178.941,270.164c4.596,0 8.761,1.865 11.777,4.879c3.016,3.013 4.883,7.175 4.883,11.768c0,4.593 -1.867,8.754 -4.883,11.768c-3.016,3.014 -7.181,4.879 -11.777,4.879c-4.596,0 -8.761,-1.865 -11.777,-4.879c-3.016,-3.014 -4.883,-7.175 -4.883,-11.768c0,-4.593 1.867,-8.755 4.883,-11.768c3.016,-3.014 7.181,-4.879 11.777,-4.879z" fill="#5e154d" stroke="#5e154d" stroke-width="2.016" stroke-linecap="round"/></g><path d="M178.979,277.996c2.443,0 4.657,0.991 6.26,2.593c1.603,1.602 2.595,3.814 2.595,6.255c0,2.441 -0.992,4.653 -2.595,6.254c-1.603,1.602 -3.817,2.593 -6.26,2.593c-2.443,0 -4.657,-0.991 -6.259,-2.593c-1.603,-1.601 -2.596,-3.813 -2.596,-6.254c0,-2.441 0.993,-4.653 2.596,-6.255c1.602,-1.602 3.816,-2.593 6.259,-2.593z" data-paper-data="{&quot;index&quot;:null}" fill="#c5a2fc" stroke="#c5a2fc" stroke-width="1.008" stroke-linecap="butt" stroke-linejoin="miter"/><path d="M178.979,281.644c1.436,0 2.737,0.583 3.679,1.524c0.942,0.941 1.525,2.241 1.525,3.676c0,1.434 -0.583,2.734 -1.525,3.675c-0.942,0.942 -2.243,1.524 -3.679,1.524c-1.436,0 -2.737,-0.582 -3.679,-1.524c-0.942,-0.941 -1.525,-2.241 -1.525,-3.675c0,-1.435 0.583,-2.735 1.525,-3.676c0.942,-0.941 2.243,-1.524 3.679,-1.524z" data-paper-data="{&quot;index&quot;:null}" fill="#ffffff" stroke="#8b49d4" stroke-width="1.512" stroke-linecap="round" stroke-linejoin="round"/><path d="M303.112,270.197c4.596,0 8.761,1.865 11.777,4.878c3.016,3.014 4.883,7.176 4.883,11.769c0,4.592 -1.867,8.754 -4.883,11.768c-3.016,3.013 -7.181,4.879 -11.777,4.879c-4.596,0 -8.761,-1.866 -11.777,-4.879c-3.016,-3.014 -4.883,-7.176 -4.883,-11.768c0,-4.593 1.867,-8.755 4.883,-11.769c3.016,-3.013 7.181,-4.878 11.777,-4.878z" data-paper-data="{&quot;index&quot;:null}" fill="#5e154d" stroke="#5e154d" stroke-width="2.016" stroke-linecap="round" stroke-linejoin="round"/><path d="M303.112,277.996c2.443,0 4.657,0.991 6.26,2.593c1.602,1.602 2.595,3.814 2.595,6.255c0,2.441 -0.993,4.653 -2.595,6.254c-1.603,1.602 -3.817,2.593 -6.26,2.593c-2.443,0 -4.657,-0.991 -6.259,-2.593c-1.603,-1.601 -2.596,-3.813 -2.596,-6.254c0,-2.441 0.993,-4.653 2.596,-6.255c1.602,-1.602 3.816,-2.593 6.259,-2.593z" data-paper-data="{&quot;index&quot;:null}" fill="#c5a2fc" stroke="#c5a2fc" stroke-width="1.008" stroke-linecap="butt" stroke-linejoin="miter"/><path d="M303.112,281.644c1.436,0 2.737,0.583 3.679,1.524c0.942,0.941 1.525,2.241 1.525,3.676c0,1.434 -0.583,2.734 -1.525,3.675c-0.942,0.942 -2.243,1.524 -3.679,1.524c-1.436,0 -2.737,-0.582 -3.679,-1.524c-0.942,-0.941 -1.525,-2.241 -1.525,-3.675c0,-1.435 0.583,-2.735 1.525,-3.676c0.942,-0.941 2.243,-1.524 3.679,-1.524z" data-paper-data="{&quot;index&quot;:null}" fill="#ffffff" stroke="#8b49d4" stroke-width="1.512" stroke-linecap="round" stroke-linejoin="round"/><g data-paper-data="{&quot;index&quot;:null}"><g fill="#ffffff" stroke="none" stroke-width="1" stroke-linecap="butt" stroke-linejoin="miter"><path d="M271.61,201.828v1.509h-3.105v-1.509c0,-0.797 0.881,-0.42 0.881,-1.132v-1.049h1.385v1.049c0,0.712 0.839,0.251 0.839,1.132z"/><path d="M268.505,207.027h-0.588c-0.354,-0.022 -0.63,-0.316 -0.629,-0.671v-2.348c-0.001,-0.355 0.275,-0.649 0.629,-0.671h0.588z"/><path d="M268.505,207.027v-3.69h3.693c0.37,0 0.671,0.301 0.671,0.671v2.348c0,0.371 -0.301,0.671 -0.671,0.671h-2.141z"/></g><path d="M267.538,212.604c0,2.013 0,11.07 0,14.593h-0.672c-1.133,0 -1.636,-0.797 -1.636,-2.055v-10.986c0,-1.426 0,-2.81 1.049,-3.271c0.864,-0.242 1.418,-1.082 1.301,-1.971v-1.887h0.923v2.894c0,1.551 -1.007,1.341 -0.965,2.683z" fill="#f7c1d8" stroke="none" stroke-width="1" stroke-linecap="butt" stroke-linejoin="miter"/><path d="M274.882,213.946v11.196c0,1.258 -0.504,2.055 -1.595,2.055h-5.749v-14.593c0,-1.342 1.007,-1.132 1.007,-2.683v-2.894h4.197v1.887c-0.117,0.889 0.437,1.729 1.301,1.971c0.839,0.461 0.839,1.635 0.839,3.061z" fill="#ea3681" stroke="none" stroke-width="1" stroke-linecap="butt" stroke-linejoin="miter"/><path d="M267.286,203.337h5.582v4.193h-5.582z" fill="none" stroke="#663c1d" stroke-width="1.008" stroke-linecap="round" stroke-linejoin="round"/><path d="M271.609,201.828v1.509h-3.106v-1.509c0,-0.797 0.881,-0.42 0.881,-1.132v-1.049h1.385v1.049c0,0.712 0.84,0.251 0.84,1.132z" fill="none" stroke="#663c1d" stroke-width="1.008" stroke-linecap="round" stroke-linejoin="round"/><path d="M274.882,213.946v11.196c0,1.258 -0.504,2.055 -1.595,2.055h-6.421c-1.133,0 -1.636,-0.797 -1.636,-2.055v-10.986c0,-1.426 0,-2.81 1.049,-3.271c0.864,-0.242 1.418,-1.082 1.301,-1.971v-1.887h5.162v1.887c-0.117,0.889 0.437,1.729 1.301,1.971c0.839,0.461 0.839,1.635 0.839,3.061z" fill="none" stroke="#663c1d" stroke-width="1.008" stroke-linecap="round" stroke-linejoin="round"/></g><g data-paper-data="{&quot;index&quot;:null}"><g fill="#ffffff" stroke="none" stroke-width="1" stroke-linecap="butt" stroke-linejoin="miter"><path d="M284.084,201.828v1.509h-3.105v-1.509c0,-0.797 0.839,-0.42 0.839,-1.132v-1.049h1.385v1.049c0,0.712 0.881,0.251 0.881,1.132z"/><path d="M280.979,207.027h-0.588c-0.371,0 -0.671,-0.3 -0.671,-0.671v-2.348c0,-0.37 0.3,-0.671 0.671,-0.671h0.588z"/><path d="M280.895,207.027v-3.69h3.693c0.354,0.022 0.63,0.316 0.629,0.671v2.348c0.001,0.355 -0.275,0.649 -0.629,0.671h-2.14z"/></g><path d="M280.012,212.604c0,2.013 0,11.07 0,14.593h-0.713c-1.091,0 -1.595,-0.797 -1.595,-2.055v-10.986c0,-1.426 0,-2.81 1.049,-3.271c0.864,-0.242 1.418,-1.082 1.301,-1.971v-1.887h0.923v2.894c0,1.551 -1.007,1.341 -0.965,2.683z" fill="#fde982" stroke="none" stroke-width="1" stroke-linecap="butt" stroke-linejoin="miter"/><path d="M287.146,213.946v11.196c0,1.258 -0.503,2.055 -1.637,2.055h-5.707v-14.593c0,-1.342 1.007,-1.132 1.007,-2.683v-2.894h4.197v1.887c-0.117,0.889 0.437,1.729 1.301,1.971c1.049,0.461 1.049,1.635 0.839,3.061z" fill="#fdbb38" stroke="none" stroke-width="1" stroke-linecap="butt" stroke-linejoin="miter"/><path d="M279.718,203.337h5.582v4.193h-5.582z" fill="none" stroke="#663c1d" stroke-width="1.008" stroke-linecap="round" stroke-linejoin="round"/><path d="M284.083,201.828v1.509h-3.106v-1.509c0,-0.797 0.84,-0.42 0.84,-1.132v-1.049h1.384v1.049c0,0.712 0.882,0.251 0.882,1.132z" fill="none" stroke="#663c1d" stroke-width="1.008" stroke-linecap="round" stroke-linejoin="round"/><path d="M287.356,213.946v11.196c0,1.258 -0.504,2.055 -1.637,2.055h-6.42c-1.091,0 -1.595,-0.797 -1.595,-2.055v-10.986c0,-1.426 0,-2.81 1.049,-3.271c0.864,-0.242 1.418,-1.082 1.301,-1.971v-1.887h4.952v1.887c-0.117,0.889 0.437,1.729 1.301,1.971c1.049,0.461 1.049,1.635 1.049,3.061z" fill="none" stroke="#663c1d" stroke-width="1.008" stroke-linecap="round" stroke-linejoin="round"/></g></g></g></svg>