<svg version="1.1" xmlns="http://www.w3.org/2000/svg" xmlns:xlink="http://www.w3.org/1999/xlink" width="320.93885" height="288.27718" viewBox="0,0,320.93885,288.27718"><g transform="translate(-81.98022,-5.41239)"><g data-paper-data="{&quot;isPaintingLayer&quot;:true}" fill-rule="nonzero" stroke="none" stroke-width="0.5" stroke-linecap="butt" stroke-linejoin="miter" stroke-miterlimit="10" stroke-dasharray="" stroke-dashoffset="0" style="mix-blend-mode: normal"><path d="M159.48258,121.92924c0.03147,-0.03495 0.06294,-0.06991 0.09441,-0.10486c-0.01628,-0.02872 -0.03256,-0.05745 -0.04884,-0.08618c-0.0152,0.06368 -0.03038,0.12736 -0.04557,0.19104z" fill="#9966ff"/><path d="" fill="#9966ff"/><path d="" fill="#9966ff"/><path d="" fill="#9966ff"/><path d="" fill="#9966ff"/><path d="" fill="#9966ff"/><path d="M267.4206,238.70614c0.20482,0.13093 0.4097,0.26172 0.61464,0.39236c-0.55753,-0.14549 -1.11734,-0.28227 -1.67999,-0.40815c-0.02391,-0.04647 -0.04784,-0.09294 -0.07176,-0.13939c0.37893,0.05261 0.75796,0.1044 1.13711,0.15518z" fill="#9966ff"/><path d="" fill="#9966ff"/><path d="" fill="#9966ff"/><path d="" fill="#9966ff"/><path d="" fill="#9966ff"/><path d="" fill="#9966ff"/><path d="" fill="#9966ff"/><path d="" fill="#9966ff"/><path d="" fill="#9966ff"/><path d="" fill="#9966ff"/><path d="M123.36999,113.82797c0.24878,2.48759 -2.23881,2.73637 -2.23881,2.73637l-1.75065,-0.4675c2.51519,1.28373 2.62072,7.15239 4.63766,9.10534c1.71463,1.66023 6.73693,1.96246 9.03046,2.68568c0.84237,0.26562 7.85336,2.42089 8.96981,2.47592c8.92618,0.43996 14.7837,-8.04612 19.19292,-14.32185c5.50566,-9.07103 11.23004,-18.63491 14.73005,-28.69152c1.45698,-4.18634 2.47766,-8.46184 3.32703,-12.77424c-0.32022,0.50039 -0.65563,0.97241 -1.00819,1.40094c-5.71284,6.94385 -13.8182,11.55484 -21.63899,15.61998c-3.40933,0.83136 -5.73382,1.86579 -9.17197,1.3056c-4.55608,-0.74234 -6.38264,-1.71976 -10.21952,-4.16178c-8.12336,-5.1702 -13.9007,-14.30298 -15.24586,-23.85696c-0.66756,-4.74134 -0.36074,-9.55318 -0.56875,-14.3213c-0.24982,-5.7265 -0.30865,-11.18765 0.00098,-16.91513c0,0 0.13496,-2.49635 2.63131,-2.3614c2.49635,0.13496 2.3614,2.63131 2.3614,2.63131c-0.38593,7.13874 0.0356,14.0536 0.15481,21.18607c0.06895,4.12526 -0.23324,8.45857 1.09069,12.45023c3.1463,9.48614 9.99464,18.58853 20.46718,20.39436c2.34876,0.40501 4.48447,-0.48004 6.73354,-1.02866c7.04721,-3.72988 14.34316,-7.88844 19.55172,-14.12835c1.33527,-1.59967 2.91144,-5.34522 3.63661,-6.87285c1.70037,-3.58198 3.50189,-7.0856 4.78431,-10.81638c0.09203,-0.42539 0.18628,-0.85038 0.28298,-1.27491c0.95082,-4.17413 1.80052,-8.30704 2.61627,-12.47512c0.45279,-3.07524 0.85444,-6.15719 1.31909,-9.17694l0.00909,-0.0143l-0.00658,-0.0011l0.44771,-2.68639c0.17899,-1.20504 1.2179,-2.12956 2.47274,-2.12956c1.34563,0 2.44296,1.06314 2.49785,2.39529l0.15087,3.16719l-0.06079,0.0029c0.02087,0.11693 0.03841,0.23474 0.05232,0.35351c0.20202,1.72591 -0.88559,3.36369 -1.20752,5.0713c-0.25636,1.35986 -0.51551,2.71336 -0.77915,4.06307c-0.53902,3.63372 -1.15006,7.2574 -2.01213,10.76289c-0.27071,1.10079 -0.59044,2.17795 -0.94802,3.23767c-2.34402,10.88613 -3.30299,22.00834 -6.99773,32.59329c-3.64599,10.44529 -9.54435,20.3636 -15.26812,29.78694c-4.92304,7.0153 -9.63066,13.30772 -18.35862,15.72337c-6.71454,1.85839 -12.16975,-1.10553 -18.50636,-2.86957c-2.0548,-0.57203 -6.03889,-1.03294 -7.75493,-2.62226c-3.75756,-3.48009 -5.80128,-11.0053 -6.56272,-15.79764l6.41963,-1.62232c0,0 2.48759,-0.24878 2.73637,2.23881z" fill="#66ffe5"/><path d="M223.29383,62.57813c-1.62939,-1.31844 -3.24827,-2.64995 -4.85835,-3.99179c-7.40106,-6.16802 -18.29548,-13.01014 -16.76625,-24.33427c0.25804,-1.9108 1.23347,-3.68014 2.19276,-5.35271c0.97133,-1.69357 2.09188,-3.36007 3.54937,-4.65905c1.3824,-1.23205 7.36536,-3.59707 8.91439,-4.25281c4.35801,-1.84484 8.52611,-3.44587 13.10785,-4.66849c4.97384,-1.16404 9.91529,-1.85436 14.94839,-2.6925c9.43203,-1.57067 19.8742,-3.09353 28.65001,2.22926c4.62425,2.80474 5.34709,6.51568 6.61726,11.30321c0.43762,1.64946 1.25539,3.24645 1.29744,4.95246c0.14682,5.95677 -3.42072,11.51312 -5.28168,16.95688c-1.50762,4.41015 -0.65248,5.11617 -4.66585,8.87226c-2.41853,2.26349 -6.80137,3.81791 -9.77075,5.07253c-4.49821,1.17551 -9.18658,3.00464 -13.79433,3.63586c-4.35876,0.59711 -4.65668,-0.43 -8.55688,0.82448c-0.24393,0.07846 -0.49495,0.16987 -0.75187,0.27112c0.49311,0.5516 0.9125,1.45078 0.28913,2.69757c-1.11799,2.23609 -3.35408,1.11809 -3.35408,1.11809c-0.86601,-0.43576 -1.72107,-0.89647 -2.56307,-1.38112c-0.5561,0.18257 -1.10361,0.32173 -1.63327,0.39354c-2.74242,0.3718 -8.78523,1.11417 -9.44687,-3.74335c-0.17131,-1.25769 0.92971,-2.23762 1.87665,-3.25119zM228.27304,60.1733c0.407,0.13446 0.81343,0.40467 1.14366,0.90248c1.1347,0.90051 2.31586,1.74857 3.53546,2.53745c1.7029,-0.73253 3.46422,-1.61088 4.46656,-1.92232c2.98382,-0.92711 6.22348,-0.58205 9.32081,-0.99345c4.30024,-0.57118 8.68098,-2.33467 12.88303,-3.41944c2.1183,-0.89496 6.1866,-2.38557 7.98655,-4.01269c2.88869,-2.61131 2.19718,-3.47983 3.3205,-6.80197c1.59709,-4.72328 5.17967,-10.02358 5.02074,-15.16079c-0.04119,-1.33157 -0.76965,-2.55106 -1.12669,-3.83453c-0.92329,-3.31899 -1.06618,-6.46156 -4.38558,-8.33773c-7.93521,-4.48509 -16.83621,-2.97053 -25.23329,-1.57196c-4.90164,0.81639 -9.71575,1.47463 -14.55816,2.61129c-4.33166,1.14737 -8.25414,2.6814 -12.37274,4.42273c-0.21282,0.08998 -6.86475,2.78957 -7.62763,3.46048c-4.54952,4.00106 -5.22157,11.32464 -1.30341,15.98283c5.10671,6.07122 12.5977,11.18947 18.93018,16.13763zM226.78494,65.36351c-0.03043,-0.02343 -0.06083,-0.0469 -0.0912,-0.0704c-0.18257,0.09021 -0.12094,0.10372 0.0912,0.0704z" fill="#66ffe5"/><path d="M370.1215,70.7842l-0.00408,-0.00031c-2.90734,-14.44286 -4.63662,-29.24281 -3.43773,-43.96016c-0.79951,1.11847 -1.55923,2.18726 -2.02444,2.99237c-1.29601,2.24292 -2.02218,4.78234 -3.29825,7.03666c-1.6442,2.90467 -3.70391,5.56436 -5.29773,8.49698c-2.19713,4.04271 -3.59676,8.34951 -5.47729,12.53471c-3.09193,6.52351 -7.9067,20.96559 -17.63532,19.06517c-2.84599,-0.55594 -5.93619,-6.419 -6.92263,-8.48689c-3.34923,-7.02109 -4.24585,-15.42752 -5.83326,-22.95433c-0.05975,-0.28332 -1.93997,-8.80728 -2.14054,-9.27719c-0.67311,-1.57705 -2.17902,-2.74396 -2.70314,-4.37659c-0.64398,-2.006 -1.0772,-4.20365 -0.7178,-6.2796c0.08286,-0.47859 4.7132,-8.651 5.12153,-9.3783c0,0 1.22388,-2.17994 3.40381,-0.95606c2.17994,1.22388 0.95606,3.40381 0.95606,3.40381c-1.48866,2.65156 -3.91126,4.92499 -4.57482,7.89257c-0.7927,3.54514 1.905,4.84999 3.11943,7.74654c3.17052,7.56203 3.53102,16.78145 5.6322,24.70846c1.09152,4.11795 2.14342,7.60711 4.46819,11.23926c0.43263,0.67593 0.70602,1.72372 1.49107,1.8903c2.29863,0.48776 4.27024,-2.3432 5.18418,-3.72184c2.58263,-3.89578 4.61718,-8.39853 6.61147,-12.6111c1.93036,-4.28774 3.37306,-8.67436 5.62238,-12.82399c1.58525,-2.92452 3.63789,-5.57535 5.28176,-8.46733c1.31232,-2.30869 2.06823,-4.90671 3.39396,-7.20773c0.08504,-0.14759 4.64819,-6.84132 4.72809,-7.02801c1.12562,-2.6303 1.46764,-5.54379 2.50886,-8.20837l1.14285,-4.68332c0.24776,-1.1199 1.24655,-1.95755 2.44099,-1.95755c1.20824,0 2.21628,0.85712 2.44927,1.99648l0.90691,4.00576l-0.06951,0.01574c0.05315,0.20198 0.09692,0.40702 0.12996,0.61556c0.00523,0.03303 -1.93486,6.69311 -2.15837,8.08446c-0.75959,4.72842 -1.19179,9.75515 -1.27048,14.54299c-0.18987,11.55255 1.54857,23.47531 3.79331,34.78928l0.8536,2.56043c0.09501,0.26423 0.14678,0.54909 0.14678,0.84603c0,1.38071 -1.11929,2.5 -2.5,2.5c-1.12456,0 -2.0757,-0.74251 -2.38991,-1.76402l-0.89089,-2.67227c0,0 -0.01803,-0.05408 -0.04048,-0.14863z" fill="#66ffe5"/><path d="M237.23625,123.15379c-1.04758,2.26993 -3.31751,1.22235 -3.31751,1.22235l-0.37973,-0.73841c-0.41948,-0.11642 -1.15299,-0.77163 -1.25844,-0.34925c-0.19046,0.76287 0.68269,1.44352 0.7908,2.22234c0.14133,1.01808 0.06543,2.06222 -0.05432,3.08306c-0.75708,6.4538 -2.43374,12.86424 -4.69279,18.92917c-5.90442,15.85173 -16.23948,27.61493 -27.05691,40.28617c-0.68512,0.77941 -1.16928,1.79809 -2.05535,2.33823c-1.80815,1.10224 -3.73235,2.40939 -5.84879,2.48007c-4.48464,0.14977 -7.43301,-6.12736 -8.9372,-9.35216c-3.27515,-7.0215 -5.08952,-14.58487 -7.16693,-22.01501c-2.19327,-7.8445 -4.49766,-15.63188 -4.48607,-23.86747c0.0052,-3.69882 0.50155,-7.2707 1.18793,-10.84287c-8.81294,13.01952 -17.70461,26.49409 -28.19171,38.06044c-9.54907,10.5143 -20.30433,24.5786 -36.39435,20.6739c-3.79809,-0.92171 -6.90987,-1.94551 -10.04689,-4.40909c-4.93235,-3.8735 -9.2145,-10.27915 -11.5295,-16.04468c-1.81393,-4.51761 -2.21873,-7.87914 -5.26789,-11.82088c0,0 -1.51274,-1.99038 0.47764,-3.50312c1.99038,-1.51274 3.50312,0.47764 3.50312,0.47764c1.03605,1.38349 2.31932,2.61255 3.10814,4.15048c2.73192,5.32632 2.93209,10.90966 6.74175,15.85004c0.73204,0.94932 5.00953,6.12138 6.07801,6.97645c2.48366,1.9876 5.11586,2.70975 8.13371,3.46884c13.70457,3.44716 23.49464,-10.37215 31.49493,-19.18112c11.76028,-12.92593 21.45639,-28.36503 31.32707,-42.75271l2.80795,-4.09279c0.44805,-0.67265 1.21335,-1.11585 2.08218,-1.11585c1.38071,0 2.5,1.11929 2.5,2.5c0,0.04804 -0.00136,0.09577 -0.00403,0.14315l-0.13251,2.66377l-0.02812,-0.0014c0.00496,0.06161 0.00902,0.12338 0.01215,0.1853c0.06084,1.20494 -1.9205,8.56988 -2.13589,9.86729c-0.12487,0.75214 -0.72147,7.83453 -0.72376,8.77666c-0.02808,11.58039 4.26378,23.75118 7.7618,34.68135c1.29459,4.04516 2.65321,8.20878 4.89064,11.85714c0.83929,1.36855 1.53127,3.90849 3.11887,3.66999c2.05011,-0.30797 2.81324,-1.68159 3.9133,-3.05969c11.48984,-13.45894 22.52996,-26.05007 27.87604,-43.32498c1.28196,-4.14241 2.17825,-8.83757 2.70659,-13.13257c0.22532,-1.83166 -0.36022,-6.8823 0.21847,-7.79563c0.79869,-1.26056 2.79723,-1.04078 4.19584,-1.56117l3.55942,1.07952c0,0 2.26993,1.04758 1.22235,3.31751z" fill="#66ffe5"/><path d="M262.11069,167.23003c1.15035,1.25497 0.66275,2.4387 0.23455,3.06625c2.19984,0.52658 5.1187,-0.78953 7.53619,-1.90281c-0.17253,-0.07308 -0.34329,-0.15123 -0.51209,-0.23504c-10.22008,-5.0737 -15.36862,-15.51963 -16.86421,-26.22781c-0.67854,-4.85826 -1.06594,-10.56336 1.26228,-15.13998c2.86175,-5.62538 7.53954,-7.40787 12.8175,-10.14421c5.73405,-2.36568 11.2796,-4.32421 17.2345,-6.03325c2.14357,-0.6152 6.60087,-2.18342 8.52951,-1.69802c5.57116,1.40216 4.47609,4.53657 5.62426,8.84413c0.85211,3.19685 2.01585,6.43924 1.88348,9.74505c-0.17189,4.29262 -1.64737,9.45939 -2.54897,13.65888c-1.12344,5.23276 -1.75664,9.80434 -4.90775,14.30329c-2.89266,4.12995 -6.33001,7.5595 -10.10645,10.6307c3.93908,1.16552 7.84556,2.5445 11.75093,3.76966c0,0 2.38538,0.74832 1.63706,3.1337c-0.74832,2.38538 -3.1337,1.63706 -3.1337,1.63706c-4.7147,-1.47905 -9.43061,-3.19064 -14.20576,-4.45908c-0.37472,-0.09954 -0.75425,-0.18441 -1.13693,-0.25948c-0.95164,0.66671 -1.91721,1.32172 -2.894,1.96953c-4.55153,1.83947 -9.76408,4.60734 -14.8841,3.11529c-1.25485,-0.36568 -1.87869,-1.81769 -2.81804,-2.72654l1.96955,-5.20096c0,0 1.84291,-1.68928 3.53219,0.15362zM275.92088,164.74446c5.88665,-4.20326 11.98298,-9.3875 14.58953,-15.96853c2.0239,-5.10995 2.53323,-11.49576 3.51067,-16.90097c0.96126,-5.31574 0.33098,-7.77229 -0.88609,-12.85397c-0.0742,-0.30981 0.30149,-5.10826 -1.92181,-5.23652c-0.68035,-0.03925 -5.33582,1.43934 -6.01504,1.63487c-5.70304,1.64169 -11.01149,3.50078 -16.5076,5.7621c-4.01587,2.08474 -8.2909,3.42504 -10.40665,7.75429c-1.8277,3.73983 -1.39021,8.37069 -0.82799,12.29499c1.29817,9.06125 5.3216,17.98835 14.0122,22.38952c1.37342,0.69554 2.90401,0.93115 4.45278,1.12421zM260.86395,169.53694l-0.57339,-0.64272c0.17609,0.24805 0.36785,0.46123 0.57339,0.64272z" fill="#66ffe5"/><path d="M393.39278,164.96096c0.37718,-0.94305 0.98426,-1.34973 1.57218,-1.5002c0.59252,-9.04701 -0.01704,-18.0072 1.186,-27.08838c0.48488,-3.38722 0.94941,-6.42432 1.31842,-9.82548c0.2405,-2.21665 0.49989,-5.41236 0.04888,-7.52331c-0.27441,-1.28439 -0.89616,-2.47829 -1.51071,-3.63902c-2.97929,-5.62721 -9.21288,-0.71831 -12.96088,0.63055c-2.55606,0.9199 -5.38063,1.50893 -7.48205,3.23047c-1.2788,1.04763 -2.29637,2.3895 -3.57517,3.43712c-1.19794,0.98138 -2.52518,1.79555 -3.83009,2.62945c-2.51743,1.60874 -5.23851,3.14881 -7.06895,5.50996c-2.19025,2.82528 -2.46288,7.06591 -4.56656,9.93359c-0.02588,0.03528 -0.05192,0.07043 -0.0781,0.10545l0.01513,0.00886l-2.50215,4.27424c-0.42817,0.76253 -1.2446,1.27775 -2.18136,1.27775c-1.38071,0 -2.5,-1.11929 -2.5,-2.5v-2.87848l0.01539,0l-0.01501,-0.0434c0.25311,-7.25882 1.08807,-14.45697 0.61265,-21.73599c-0.19601,-3.00105 -1.04962,-6.08724 -1.36433,-9.11682c-2.24061,7.71979 -5.03984,15.18939 -7.53986,22.84315c-5.01322,15.34787 -6.36942,32.13719 -9.01421,48.00524c0,0 -0.41102,2.46598 -2.877,2.05497c-2.46598,-0.41102 -2.05497,-2.877 -2.05497,-2.877c2.68383,-16.10227 4.10602,-33.06903 9.16645,-48.65095c2.86139,-8.8107 6.08984,-17.39244 8.5303,-26.34501l0.14574,-0.18558l-0.05563,-0.02671l1.79415,-3.73749c0.39291,-0.86583 1.265,-1.46802 2.27774,-1.46802c1.07856,0 1.9976,0.68301 2.34819,1.6401l1.64524,4.18767l-0.0219,0.0086c0.03331,0.07128 0.06592,0.14295 0.09778,0.21502c0.66486,1.50418 1.38096,8.57529 1.57337,10.21218c0.61979,5.27276 0.47142,10.49652 0.20332,15.73215c1.63491,-3.17314 3.91846,-6.06935 6.22198,-7.9312c2.41999,-1.95598 5.46909,-3.04123 7.86904,-5.02174c3.58772,-2.9607 3.26376,-4.02273 7.49941,-5.9358c1.57255,-0.71026 3.32193,-0.94495 4.9454,-1.52952c6.11257,-2.20095 10.06986,-5.65397 16.51472,-1.39996c8.14709,5.37759 4.4084,19.43485 3.30884,27.11747c-1.31706,9.94291 -0.4482,19.7396 -1.38627,29.67747l-4.93226,1.47819c0,0 -2.32123,-0.92839 -1.39284,-3.24962z" fill="#66ffe5"/><path d="M200.34709,206.18799c0,-1.38071 1.11929,-2.5 2.5,-2.5c1.38071,0 2.5,1.11929 2.5,2.5c0,1.38071 -1.11929,2.5 -2.5,2.5c-1.38071,0 -2.5,-1.11929 -2.5,-2.5z" fill="#66ffe5"/><path d="M198.71179,255.02294c-2.02183,1.47044 -3.49227,-0.5514 -3.49227,-0.5514l-1.63471,-3.6608c2.03592,-9.50087 4.61044,-19.0057 7.49349,-28.27748c1.20863,-3.88691 3.10944,-7.5107 4.39661,-11.37842c1.99979,-6.00901 3.5638,-12.00883 6.15005,-17.80469c0,0 1.02096,-2.28203 3.30298,-1.26107c2.28203,1.02096 1.26107,3.30298 1.26107,3.30298c-2.52802,5.63494 -4.01804,11.49558 -5.97037,17.34295c-1.27684,3.82423 -3.17679,7.43681 -4.36469,11.27915c-2.82506,9.13783 -5.37441,18.48421 -7.38015,27.84425l0.78936,-0.32773c0,0 1.47044,2.02183 -0.5514,3.49227z" fill="#66ffe5"/><path d="M270.26749,261.03193c-2.42536,0.60631 -3.03167,-1.81905 -3.03167,-1.81905l-0.22503,-1.28614c0.51566,-17.32009 -4.66242,-34.94578 -1.91901,-52.24449c0.41916,-2.64306 1.88364,-5.00981 2.84076,-7.50888c0,0 0.89414,-2.33463 3.22878,-1.44049c2.33463,0.89414 1.44049,3.22878 1.44049,3.22878c-0.86095,2.24796 -2.26024,4.35095 -2.6134,6.73208c-2.52257,17.00782 2.51991,34.34642 2.0202,51.38069l0.07794,-0.07417c0,0 0.60631,2.42536 -1.81905,3.03167z" fill="#66ffe5"/><path d="M347.41936,224.5267c0.44715,2.45969 -2.01254,2.90684 -2.01254,2.90684l-0.94949,0.05563c-4.36013,2.21145 -7.15952,6.78552 -10.51932,10.30574c-16.45802,14.70472 -34.4254,27.52788 -54.1851,37.52496c-10.1053,5.1126 -21.06416,8.83722 -31.6225,12.88022c-12.04243,3.91106 -26.37323,6.52119 -39.05415,5.09483c-7.97056,-0.89653 -16.13457,-2.3505 -24.06811,-3.58998c-5.90374,-0.92236 -11.83235,-3.58581 -17.76978,-1.59621c0,0 -2.38399,0.75271 -3.1367,-1.63128c-0.75271,-2.38399 1.63128,-3.1367 1.63128,-3.1367c7.02722,-2.12031 13.1619,0.36054 20.10669,1.43382c7.85816,1.21444 15.91148,2.64207 23.80225,3.55245c11.8843,1.37113 25.53779,-1.15751 36.81966,-4.8402c10.35638,-3.96955 21.12169,-7.60988 31.03351,-12.62813c19.31379,-9.77837 36.86688,-22.29611 52.96651,-36.65744c3.8322,-4.01719 6.75382,-8.47938 11.66717,-11.13674l2.38376,-0.55033c0,0 2.45969,-0.44715 2.90684,2.01254z" fill="#66ffe5"/></g></g></svg>